<mxfile host="app.diagrams.net" modified="2022-10-19T20:57:40.784Z" agent="5.0 (Macintosh; Intel Mac OS X 10_15_7) AppleWebKit/537.36 (KHTML, like Gecko) Chrome/106.0.0.0 Safari/537.36" etag="rLCbLp7R3U0_YO4I3PzV" version="20.4.2" type="github">
  <diagram id="prtHgNgQTEPvFCAcTncT" name="Page-1">
    <mxGraphModel dx="1396" dy="826" grid="1" gridSize="10" guides="1" tooltips="1" connect="1" arrows="1" fold="1" page="1" pageScale="1" pageWidth="827" pageHeight="1169" math="0" shadow="0">
      <root>
        <mxCell id="0" />
        <mxCell id="1" parent="0" />
        <mxCell id="dNxyNK7c78bLwvsdeMH5-11" value="Shark Spotting Website" style="swimlane;html=1;startSize=20;horizontal=1;containerType=tree;glass=0;" parent="1" vertex="1">
          <mxGeometry x="160" y="40" width="520" height="680" as="geometry" />
        </mxCell>
        <mxCell id="qgqeaup8MHFDbKRRuk7_-4" value="Find individual team member info" style="ellipse;whiteSpace=wrap;html=1;" vertex="1" parent="dNxyNK7c78bLwvsdeMH5-11">
          <mxGeometry x="200" y="60" width="150" height="80" as="geometry" />
        </mxCell>
        <mxCell id="qgqeaup8MHFDbKRRuk7_-6" value="See news about the team" style="ellipse;whiteSpace=wrap;html=1;" vertex="1" parent="dNxyNK7c78bLwvsdeMH5-11">
          <mxGeometry x="60" y="160" width="140" height="80" as="geometry" />
        </mxCell>
        <mxCell id="qgqeaup8MHFDbKRRuk7_-12" value="Add files to database" style="ellipse;whiteSpace=wrap;html=1;" vertex="1" parent="dNxyNK7c78bLwvsdeMH5-11">
          <mxGeometry x="60" y="280" width="140" height="80" as="geometry" />
        </mxCell>
        <mxCell id="qgqeaup8MHFDbKRRuk7_-17" value="Create user account" style="ellipse;whiteSpace=wrap;html=1;" vertex="1" parent="dNxyNK7c78bLwvsdeMH5-11">
          <mxGeometry x="90" y="420" width="120" height="80" as="geometry" />
        </mxCell>
        <mxCell id="qgqeaup8MHFDbKRRuk7_-19" value="Find user passwords by username" style="ellipse;whiteSpace=wrap;html=1;" vertex="1" parent="dNxyNK7c78bLwvsdeMH5-11">
          <mxGeometry x="215" y="340" width="135" height="80" as="geometry" />
        </mxCell>
        <mxCell id="qgqeaup8MHFDbKRRuk7_-21" value="Access database" style="ellipse;whiteSpace=wrap;html=1;" vertex="1" parent="dNxyNK7c78bLwvsdeMH5-11">
          <mxGeometry x="340" y="110" width="120" height="80" as="geometry" />
        </mxCell>
        <mxCell id="qgqeaup8MHFDbKRRuk7_-23" value="Update news page" style="ellipse;whiteSpace=wrap;html=1;" vertex="1" parent="dNxyNK7c78bLwvsdeMH5-11">
          <mxGeometry x="70" y="550" width="120" height="80" as="geometry" />
        </mxCell>
        <mxCell id="qgqeaup8MHFDbKRRuk7_-26" value="Edit personal bio" style="ellipse;whiteSpace=wrap;html=1;" vertex="1" parent="dNxyNK7c78bLwvsdeMH5-11">
          <mxGeometry x="370" y="250" width="130" height="85" as="geometry" />
        </mxCell>
        <mxCell id="qgqeaup8MHFDbKRRuk7_-30" value="Find individual team info" style="ellipse;whiteSpace=wrap;html=1;" vertex="1" parent="dNxyNK7c78bLwvsdeMH5-11">
          <mxGeometry x="30" y="30" width="120" height="80" as="geometry" />
        </mxCell>
        <mxCell id="qgqeaup8MHFDbKRRuk7_-32" value="Login" style="ellipse;whiteSpace=wrap;html=1;" vertex="1" parent="dNxyNK7c78bLwvsdeMH5-11">
          <mxGeometry x="340" y="465" width="120" height="80" as="geometry" />
        </mxCell>
        <mxCell id="qgqeaup8MHFDbKRRuk7_-1" value="Visitor" style="shape=umlActor;verticalLabelPosition=bottom;verticalAlign=top;html=1;outlineConnect=0;" vertex="1" parent="1">
          <mxGeometry x="60" y="170" width="40" height="80" as="geometry" />
        </mxCell>
        <mxCell id="qgqeaup8MHFDbKRRuk7_-2" value="Admin" style="shape=umlActor;verticalLabelPosition=bottom;verticalAlign=top;html=1;outlineConnect=0;" vertex="1" parent="1">
          <mxGeometry x="70" y="340" width="40" height="80" as="geometry" />
        </mxCell>
        <mxCell id="qgqeaup8MHFDbKRRuk7_-5" value="" style="endArrow=none;html=1;rounded=0;entryX=0;entryY=0.5;entryDx=0;entryDy=0;" edge="1" parent="1" target="qgqeaup8MHFDbKRRuk7_-4">
          <mxGeometry width="50" height="50" relative="1" as="geometry">
            <mxPoint x="100" y="210" as="sourcePoint" />
            <mxPoint x="320" y="185" as="targetPoint" />
          </mxGeometry>
        </mxCell>
        <mxCell id="qgqeaup8MHFDbKRRuk7_-7" value="" style="endArrow=none;html=1;rounded=0;entryX=0;entryY=0.5;entryDx=0;entryDy=0;" edge="1" parent="1" target="qgqeaup8MHFDbKRRuk7_-6">
          <mxGeometry width="50" height="50" relative="1" as="geometry">
            <mxPoint x="110" y="230" as="sourcePoint" />
            <mxPoint x="210" y="280" as="targetPoint" />
          </mxGeometry>
        </mxCell>
        <mxCell id="qgqeaup8MHFDbKRRuk7_-13" value="" style="endArrow=none;html=1;rounded=0;entryX=0;entryY=0.5;entryDx=0;entryDy=0;" edge="1" parent="1" source="qgqeaup8MHFDbKRRuk7_-2" target="qgqeaup8MHFDbKRRuk7_-12">
          <mxGeometry width="50" height="50" relative="1" as="geometry">
            <mxPoint x="210" y="430" as="sourcePoint" />
            <mxPoint x="260" y="380" as="targetPoint" />
          </mxGeometry>
        </mxCell>
        <mxCell id="qgqeaup8MHFDbKRRuk7_-14" value="Team member" style="shape=umlActor;verticalLabelPosition=bottom;verticalAlign=top;html=1;outlineConnect=0;" vertex="1" parent="1">
          <mxGeometry x="720" y="160" width="40" height="70" as="geometry" />
        </mxCell>
        <mxCell id="qgqeaup8MHFDbKRRuk7_-18" value="" style="endArrow=none;html=1;rounded=0;exitX=0;exitY=0.375;exitDx=0;exitDy=0;exitPerimeter=0;" edge="1" parent="1" source="qgqeaup8MHFDbKRRuk7_-17" target="qgqeaup8MHFDbKRRuk7_-2">
          <mxGeometry width="50" height="50" relative="1" as="geometry">
            <mxPoint x="170" y="520" as="sourcePoint" />
            <mxPoint x="220" y="470" as="targetPoint" />
          </mxGeometry>
        </mxCell>
        <mxCell id="qgqeaup8MHFDbKRRuk7_-20" value="" style="endArrow=none;html=1;rounded=0;entryX=0;entryY=0.5;entryDx=0;entryDy=0;" edge="1" parent="1" source="qgqeaup8MHFDbKRRuk7_-2" target="qgqeaup8MHFDbKRRuk7_-19">
          <mxGeometry width="50" height="50" relative="1" as="geometry">
            <mxPoint x="210" y="500" as="sourcePoint" />
            <mxPoint x="260" y="450" as="targetPoint" />
            <Array as="points" />
          </mxGeometry>
        </mxCell>
        <mxCell id="qgqeaup8MHFDbKRRuk7_-22" value="" style="endArrow=none;html=1;rounded=0;" edge="1" parent="1" source="qgqeaup8MHFDbKRRuk7_-21" target="qgqeaup8MHFDbKRRuk7_-14">
          <mxGeometry width="50" height="50" relative="1" as="geometry">
            <mxPoint x="610" y="230" as="sourcePoint" />
            <mxPoint x="660" y="180" as="targetPoint" />
          </mxGeometry>
        </mxCell>
        <mxCell id="qgqeaup8MHFDbKRRuk7_-24" value="" style="endArrow=none;html=1;rounded=0;entryX=0.033;entryY=0.731;entryDx=0;entryDy=0;entryPerimeter=0;" edge="1" parent="1" source="qgqeaup8MHFDbKRRuk7_-2" target="qgqeaup8MHFDbKRRuk7_-21">
          <mxGeometry width="50" height="50" relative="1" as="geometry">
            <mxPoint x="400" y="340" as="sourcePoint" />
            <mxPoint x="450" y="290" as="targetPoint" />
          </mxGeometry>
        </mxCell>
        <mxCell id="qgqeaup8MHFDbKRRuk7_-25" value="" style="endArrow=none;html=1;rounded=0;entryX=0;entryY=0;entryDx=0;entryDy=0;" edge="1" parent="1" source="qgqeaup8MHFDbKRRuk7_-2" target="qgqeaup8MHFDbKRRuk7_-23">
          <mxGeometry width="50" height="50" relative="1" as="geometry">
            <mxPoint x="170" y="410" as="sourcePoint" />
            <mxPoint x="220" y="360" as="targetPoint" />
          </mxGeometry>
        </mxCell>
        <mxCell id="qgqeaup8MHFDbKRRuk7_-28" value="" style="endArrow=none;html=1;rounded=0;" edge="1" parent="1" source="qgqeaup8MHFDbKRRuk7_-12" target="qgqeaup8MHFDbKRRuk7_-14">
          <mxGeometry width="50" height="50" relative="1" as="geometry">
            <mxPoint x="630" y="310" as="sourcePoint" />
            <mxPoint x="680" y="260" as="targetPoint" />
          </mxGeometry>
        </mxCell>
        <mxCell id="qgqeaup8MHFDbKRRuk7_-29" value="" style="endArrow=none;html=1;rounded=0;" edge="1" parent="1" source="qgqeaup8MHFDbKRRuk7_-26" target="qgqeaup8MHFDbKRRuk7_-14">
          <mxGeometry width="50" height="50" relative="1" as="geometry">
            <mxPoint x="680" y="290" as="sourcePoint" />
            <mxPoint x="730" y="240" as="targetPoint" />
          </mxGeometry>
        </mxCell>
        <mxCell id="qgqeaup8MHFDbKRRuk7_-31" value="" style="endArrow=none;html=1;rounded=0;entryX=0.008;entryY=0.725;entryDx=0;entryDy=0;entryPerimeter=0;" edge="1" parent="1" source="qgqeaup8MHFDbKRRuk7_-1" target="qgqeaup8MHFDbKRRuk7_-30">
          <mxGeometry width="50" height="50" relative="1" as="geometry">
            <mxPoint x="100" y="190" as="sourcePoint" />
            <mxPoint x="150" y="140" as="targetPoint" />
          </mxGeometry>
        </mxCell>
        <mxCell id="qgqeaup8MHFDbKRRuk7_-33" value="" style="endArrow=none;html=1;rounded=0;exitX=1;exitY=0;exitDx=0;exitDy=0;" edge="1" parent="1" source="qgqeaup8MHFDbKRRuk7_-32" target="qgqeaup8MHFDbKRRuk7_-14">
          <mxGeometry width="50" height="50" relative="1" as="geometry">
            <mxPoint x="620" y="480" as="sourcePoint" />
            <mxPoint x="670" y="430" as="targetPoint" />
          </mxGeometry>
        </mxCell>
        <mxCell id="qgqeaup8MHFDbKRRuk7_-34" value="" style="endArrow=none;html=1;rounded=0;" edge="1" parent="1" source="qgqeaup8MHFDbKRRuk7_-2" target="qgqeaup8MHFDbKRRuk7_-32">
          <mxGeometry width="50" height="50" relative="1" as="geometry">
            <mxPoint x="400" y="510" as="sourcePoint" />
            <mxPoint x="450" y="460" as="targetPoint" />
          </mxGeometry>
        </mxCell>
      </root>
    </mxGraphModel>
  </diagram>
</mxfile>
